<svg width="64" height="64" viewBox="0 0 64 64" fill="none" xmlns="http://www.w3.org/2000/svg">
  <rect width="64" height="64" rx="18" fill="#050505"/>
  <path d="M20 47V17H35C40.8 17 44.5 20.2 44.5 25C44.5 28.1 43 30.4 40.3 31.6C43.9 32.7 46 35.2 46 38.9C46 44 42.1 47 35.7 47H20Z" fill="#F5C76B"/>
  <path d="M27.2 29.2H34C36.4 29.2 37.8 28.1 37.8 26.2C37.8 24.3 36.4 23.2 34 23.2H27.2V29.2Z" fill="#050505"/>
  <path d="M27.2 40.8H34.8C37.5 40.8 39 39.7 39 37.6C39 35.6 37.5 34.4 34.8 34.4H27.2V40.8Z" fill="#050505"/>
</svg>
