<svg width="64" height="64" viewBox="0 0 64 64" fill="none" xmlns="http://www.w3.org/2000/svg">
  <rect width="64" height="64" rx="18" fill="#050505"/>
  <path d="M18 48V16H36C42 16 46 19.5 46 24.6C46 28.2 44.2 30.8 40.8 32C44.9 33.1 47.2 35.9 47.2 39.8C47.2 45.1 43.1 48 36.2 48H18Z" fill="#F5C76B"/>
  <path d="M26 29H34.5C37.1 29 38.7 27.7 38.7 25.6C38.7 23.5 37.1 22.3 34.5 22.3H26V29Z" fill="#050505"/>
  <path d="M26 41.5H35.5C38.4 41.5 40 40.2 40 37.9C40 35.7 38.4 34.4 35.5 34.4H26V41.5Z" fill="#050505"/>
</svg>
